<svg width="30" height="30" fill="none" xmlns="http://www.w3.org/2000/svg"><path d="M20.937 4.45V2.5A.944.944 0 0020 1.562a.944.944 0 00-.938.938v1.875h-8.125V2.5A.944.944 0 0010 1.562a.944.944 0 00-.938.938v1.95C5.687 4.763 4.05 6.775 3.8 9.762a.628.628 0 00.625.663h21.15c.362 0 .662-.313.625-.663-.25-2.987-1.888-5-5.263-5.312z" fill="url(#paint0_linear_233_198)"/><path d="M23.75 18.75a5 5 0 00-5 5c0 .938.262 1.825.725 2.575a4.962 4.962 0 004.275 2.425 4.962 4.962 0 004.275-2.425c.463-.75.725-1.637.725-2.575a5 5 0 00-5-5zm2.587 4.462l-2.662 2.463a.954.954 0 01-.637.25.927.927 0 01-.663-.275l-1.238-1.237a.943.943 0 010-1.326.943.943 0 011.325 0l.6.6 2-1.85a.944.944 0 011.325.05.944.944 0 01-.05 1.325z" fill="url(#paint1_linear_233_198)"/><path d="M25 12.3H5c-.688 0-1.25.563-1.25 1.25v7.7C3.75 25 5.625 27.5 10 27.5h6.163c.862 0 1.462-.837 1.187-1.65-.25-.725-.463-1.525-.463-2.1 0-3.788 3.088-6.875 6.875-6.875.363 0 .726.025 1.075.087a1.244 1.244 0 001.425-1.224v-2.175A1.275 1.275 0 0025 12.3zM11.512 22.762a1.314 1.314 0 01-.887.363c-.325 0-.65-.137-.887-.363a1.314 1.314 0 01-.363-.887c0-.325.137-.65.363-.887.125-.113.25-.2.412-.263a1.249 1.249 0 011.362.262c.226.238.363.563.363.888 0 .325-.137.65-.363.887zm0-4.375l-.187.15a.946.946 0 01-.225.113.795.795 0 01-.225.075 1.879 1.879 0 01-.25.025c-.325 0-.65-.137-.887-.363a1.314 1.314 0 01-.363-.887c0-.325.137-.65.363-.887a1.262 1.262 0 011.137-.338c.075.013.15.038.225.075.075.025.15.063.225.112l.188.15c.225.238.362.563.362.888 0 .325-.137.65-.363.887zm4.375 0a1.314 1.314 0 01-.887.363c-.325 0-.65-.137-.887-.363a1.314 1.314 0 01-.363-.887c0-.325.137-.65.363-.887.475-.463 1.312-.463 1.774 0 .226.237.363.562.363.887 0 .325-.137.65-.363.887z" fill="url(#paint2_linear_233_198)"/><defs><linearGradient id="paint0_linear_233_198" x1="29.604" y1="65.898" x2="-26.086" y2="54.743" gradientUnits="userSpaceOnUse"><stop offset=".252" stop-color="#59A49E"/><stop offset=".638" stop-color="#A6D8D2"/></linearGradient><linearGradient id="paint1_linear_233_198" x1="30.268" y1="91.343" x2="4.575" y2="89.307" gradientUnits="userSpaceOnUse"><stop offset=".252" stop-color="#59A49E"/><stop offset=".638" stop-color="#A6D8D2"/></linearGradient><linearGradient id="paint2_linear_233_198" x1="4.2" y1="27.196" x2="30.489" y2="-8.28" gradientUnits="userSpaceOnUse"><stop offset=".138" stop-color="#FFB23F"/><stop offset=".467" stop-color="#FAD8A5"/></linearGradient></defs></svg>