<svg width="30" height="30" fill="none" xmlns="http://www.w3.org/2000/svg"><path d="M21.25 5H8.75C5 5 2.5 6.875 2.5 11.25v4.45c0 .463.475.75.888.563a6.922 6.922 0 014.125-.513c3.287.587 5.7 3.637 5.612 6.975a6.346 6.346 0 01-.225 1.537c-.1.388.213.75.612.75h7.738c3.75 0 6.25-1.875 6.25-6.25V11.25C27.5 6.875 25 5 21.25 5zM15 18.125a3.126 3.126 0 010-6.25 3.126 3.126 0 010 6.25zm9.063-.625a.944.944 0 01-.938.938.944.944 0 01-.938-.938v-5c0-.512.425-.938.938-.938.512 0 .938.426.938.938v5z" fill="url(#paint0_linear_233_79)"/><path d="M6.25 17.5c-2.763 0-5 2.238-5 5 0 .938.262 1.825.725 2.575A4.962 4.962 0 006.25 27.5a4.962 4.962 0 004.275-2.425c.463-.75.725-1.637.725-2.575a5 5 0 00-5-5zm2.463 4.587L6.05 24.55a.954.954 0 01-.638.25.927.927 0 01-.662-.275l-1.237-1.237a.943.943 0 010-1.326.943.943 0 011.325 0l.6.6 2-1.85a.944.944 0 011.324.05.944.944 0 01-.05 1.325z" fill="url(#paint1_linear_233_79)"/><defs><linearGradient id="paint0_linear_233_79" x1="3" y1="24.612" x2="38.878" y2="-16.223" gradientUnits="userSpaceOnUse"><stop offset=".138" stop-color="#FFB23F"/><stop offset=".467" stop-color="#FAD8A5"/></linearGradient><linearGradient id="paint1_linear_233_79" x1="12.768" y1="90.093" x2="-12.925" y2="88.057" gradientUnits="userSpaceOnUse"><stop offset=".252" stop-color="#40B4A6"/><stop offset=".638" stop-color="#A6D8D2"/></linearGradient></defs></svg>