<svg width="30" height="30" fill="none" xmlns="http://www.w3.org/2000/svg"><path d="M15 23.125v1.1c0 2.337-.938 3.275-3.287 3.275H5.775A3.27 3.27 0 012.5 24.225v-5.938c0-2.35.938-3.287 3.275-3.287h1.1v4.375a3.745 3.745 0 003.75 3.75H15z" fill="url(#paint0_linear_2_5377)"/><path d="M21.25 16.875v1.087a3.292 3.292 0 01-3.288 3.288h-5.937c-2.338 0-3.275-.938-3.275-3.288v-5.937a3.27 3.27 0 013.275-3.275h1.1v4.375a3.745 3.745 0 003.75 3.75h4.375z" fill="url(#paint1_linear_2_5377)"/><path d="M27.5 5.775v5.938c0 2.35-.938 3.287-3.288 3.287h-5.937C15.938 15 15 14.062 15 11.713V5.775c0-2.338.938-3.275 3.275-3.275h5.938c2.35 0 3.287.938 3.287 3.275z" fill="url(#paint2_linear_2_5377)"/><defs><linearGradient id="paint0_linear_2_5377" x1="16.898" y1="105.741" x2="-15.218" y2="103.196" gradientUnits="userSpaceOnUse"><stop offset=".252" stop-color="#59A49E"/><stop offset=".638" stop-color="#A6D8D2"/></linearGradient><linearGradient id="paint1_linear_2_5377" x1="9" y1="21" x2="31.5" y2=".5" gradientUnits="userSpaceOnUse"><stop offset=".138" stop-color="#FFB23F"/><stop offset=".467" stop-color="#FAD8A5"/></linearGradient><linearGradient id="paint2_linear_2_5377" x1="29.398" y1="93.241" x2="-2.718" y2="90.696" gradientUnits="userSpaceOnUse"><stop offset=".252" stop-color="#59A49E"/><stop offset=".638" stop-color="#A6D8D2"/></linearGradient></defs></svg>