<svg aria-hidden="true" style="position: absolute; width: 0; height: 0; overflow: hidden;" version="1.1" xmlns="http://www.w3.org/2000/svg" xmlns:xlink="http://www.w3.org/1999/xlink">
<defs>

<symbol id="user" viewBox="0 0 32 32">
<path stroke-linejoin="round" stroke-linecap="round" stroke-miterlimit="4" stroke-width="1.6" d="M16 16c3.682 0 6.667-2.985 6.667-6.667s-2.985-6.667-6.667-6.667c-3.682 0-6.667 2.985-6.667 6.667s2.985 6.667 6.667 6.667z"></path>
<path stroke-linejoin="round" stroke-linecap="round" stroke-miterlimit="4" stroke-width="1.6" d="M27.454 29.333c0-5.16-5.133-9.333-11.453-9.333s-11.453 4.173-11.453 9.333"></path>
</symbol>
<symbol id="Vector" viewBox="0 0 34 32">
<path fill="#ffb23f" style="fill: var(--color2, #ffb23f); stroke: var(--color2, #ffb23f)" stroke="#ffb23f" stroke-linejoin="round" stroke-linecap="round" stroke-miterlimit="4" stroke-width="2.2857" d="M16.762 1.524l4.709 9.539 10.53 1.539-7.619 7.421 1.798 10.484-9.417-4.952-9.417 4.952 1.798-10.484-7.619-7.421 10.53-1.539 4.709-9.539z"></path>
</symbol>
<symbol id="bag-2" viewBox="0 0 32 32">
<path stroke-linejoin="round" stroke-linecap="round" stroke-miterlimit="10" stroke-width="1.6" d="M10 10.227v-1.293c0-3 2.413-5.947 5.413-6.227 3.573-0.347 6.587 2.467 6.587 5.973v1.84"></path>
<path stroke-linejoin="round" stroke-linecap="round" stroke-miterlimit="10" stroke-width="1.6" d="M12 29.333h8c5.36 0 6.32-2.147 6.6-4.76l1-8c0.36-3.253-0.573-5.907-6.267-5.907h-10.667c-5.693 0-6.627 2.653-6.267 5.907l1 8c0.28 2.613 1.24 4.76 6.6 4.76z"></path>
<path stroke-linejoin="round" stroke-linecap="round" stroke-miterlimit="4" stroke-width="1.6" d="M20.66 16h0.012"></path>
<path stroke-linejoin="round" stroke-linecap="round" stroke-miterlimit="4" stroke-width="1.6" d="M11.326 16h0.012"></path>
</symbol>
<symbol id="logo" viewBox="0 0 100 32">
<path fill="#fff" style="fill: var(--color1, #fff)" d="M32 0h-32v32h32v-32z"></path>
<path fill="#ad7e5c" style="fill: var(--color2, #ad7e5c)" d="M25.069 15.696l-0.715 2.667h-13.952l-3.797-14.168h2.763l3.080 11.501h12.621z"></path>
<path fill="#518581" style="fill: var(--color3, #518581)" d="M23.925 19.963l-0.715 2.667h-15.891l-0.715-2.667h17.32z"></path>
<path fill="#a6d8d1" style="fill: var(--color4, #a6d8d1)" d="M22.781 24.229l-0.715 2.667h-10.949l-0.715-2.667h12.379z"></path>
<path fill="#151411" style="fill: var(--color5, #151411)" d="M41.143 9.307h2.487v11.429h5.833v2.194h-8.32v-13.623z"></path>
<path fill="#151411" style="fill: var(--color5, #151411)" d="M53.887 23.15c-1.048 0-1.883-0.256-2.505-0.768-0.61-0.512-0.914-1.207-0.914-2.085 0-0.841 0.286-1.536 0.859-2.085s1.432-0.914 2.578-1.097l2.962-0.475v-0.329c0-0.439-0.171-0.798-0.512-1.079-0.329-0.28-0.768-0.421-1.317-0.421-0.512 0-0.969 0.14-1.371 0.421-0.39 0.268-0.677 0.628-0.859 1.079l-1.957-0.951c0.293-0.78 0.829-1.408 1.609-1.883s1.67-0.713 2.67-0.713c0.805 0 1.518 0.152 2.139 0.457 0.634 0.293 1.122 0.713 1.463 1.262 0.354 0.536 0.53 1.146 0.53 1.829v6.619h-2.267v-1.061c-0.78 0.853-1.816 1.28-3.109 1.28zM52.955 20.206c0 0.341 0.128 0.616 0.384 0.823 0.256 0.195 0.585 0.293 0.987 0.293 0.744 0 1.353-0.232 1.829-0.695 0.475-0.475 0.713-1.061 0.713-1.755v-0.402l-2.505 0.421c-0.475 0.098-0.829 0.256-1.061 0.475-0.232 0.207-0.347 0.488-0.347 0.841z"></path>
<path fill="#151411" style="fill: var(--color5, #151411)" d="M61.477 9.088h2.395v13.842h-2.395v-13.842z"></path>
<path fill="#151411" style="fill: var(--color5, #151411)" d="M69.102 23.15c-1.048 0-1.883-0.256-2.505-0.768-0.61-0.512-0.914-1.207-0.914-2.085 0-0.841 0.286-1.536 0.859-2.085s1.432-0.914 2.578-1.097l2.962-0.475v-0.329c0-0.439-0.171-0.798-0.512-1.079-0.329-0.28-0.768-0.421-1.317-0.421-0.512 0-0.969 0.14-1.371 0.421-0.39 0.268-0.677 0.628-0.859 1.079l-1.957-0.951c0.293-0.78 0.829-1.408 1.609-1.883s1.67-0.713 2.67-0.713c0.805 0 1.518 0.152 2.139 0.457 0.634 0.293 1.122 0.713 1.463 1.262 0.354 0.536 0.53 1.146 0.53 1.829v6.619h-2.267v-1.061c-0.78 0.853-1.816 1.28-3.109 1.28zM68.169 20.206c0 0.341 0.128 0.616 0.384 0.823 0.256 0.195 0.585 0.293 0.987 0.293 0.744 0 1.353-0.232 1.829-0.695 0.475-0.475 0.713-1.061 0.713-1.755v-0.402l-2.505 0.421c-0.475 0.098-0.829 0.256-1.061 0.475-0.232 0.207-0.347 0.488-0.347 0.841z"></path>
<path fill="#151411" style="fill: var(--color5, #151411)" d="M80.422 23.131c-1 0-1.883-0.238-2.651-0.713-0.756-0.475-1.292-1.128-1.609-1.957l1.774-0.914c0.268 0.536 0.622 0.957 1.061 1.262 0.451 0.293 0.945 0.439 1.481 0.439 0.463 0 0.823-0.091 1.079-0.274 0.268-0.195 0.402-0.457 0.402-0.786 0-0.28-0.11-0.512-0.329-0.695-0.219-0.195-0.506-0.323-0.859-0.384l-1.627-0.274c-0.841-0.219-1.493-0.591-1.957-1.115-0.451-0.536-0.677-1.164-0.677-1.883 0-0.597 0.158-1.128 0.475-1.591 0.317-0.475 0.756-0.841 1.317-1.097 0.573-0.256 1.219-0.384 1.938-0.384 0.914 0 1.719 0.219 2.414 0.658 0.695 0.427 1.201 1.024 1.518 1.792l-1.774 0.914c-0.195-0.427-0.494-0.768-0.896-1.024s-0.847-0.384-1.335-0.384c-0.402 0-0.725 0.091-0.969 0.274-0.232 0.183-0.347 0.421-0.347 0.713 0 0.536 0.402 0.896 1.207 1.079l1.591 0.293c0.841 0.232 1.493 0.61 1.957 1.134s0.695 1.146 0.695 1.865c0 0.597-0.165 1.128-0.494 1.591-0.317 0.463-0.768 0.823-1.353 1.079s-1.262 0.384-2.030 0.384z"></path>
<path fill="#151411" style="fill: var(--color5, #151411)" d="M86.085 12.983h2.395v9.947h-2.395v-9.947zM85.902 10.24c0-0.439 0.122-0.78 0.366-1.024s0.579-0.366 1.006-0.366c0.439 0 0.78 0.122 1.024 0.366s0.366 0.585 0.366 1.024c0 0.427-0.122 0.762-0.366 1.006-0.232 0.244-0.573 0.366-1.024 0.366-0.427 0-0.762-0.122-1.006-0.366s-0.366-0.579-0.366-1.006z"></path>
<path fill="#151411" style="fill: var(--color5, #151411)" d="M93.709 23.15c-1.048 0-1.883-0.256-2.505-0.768-0.61-0.512-0.914-1.207-0.914-2.085 0-0.841 0.286-1.536 0.859-2.085s1.432-0.914 2.578-1.097l2.962-0.475v-0.329c0-0.439-0.171-0.798-0.512-1.079-0.329-0.28-0.768-0.421-1.317-0.421-0.512 0-0.969 0.14-1.371 0.421-0.39 0.268-0.677 0.628-0.859 1.079l-1.957-0.951c0.293-0.78 0.829-1.408 1.609-1.883s1.67-0.713 2.67-0.713c0.805 0 1.518 0.152 2.139 0.457 0.634 0.293 1.122 0.713 1.463 1.262 0.354 0.536 0.53 1.146 0.53 1.829v6.619h-2.267v-1.061c-0.78 0.853-1.816 1.28-3.109 1.28zM92.776 20.206c0 0.341 0.128 0.616 0.384 0.823 0.256 0.195 0.585 0.293 0.987 0.293 0.744 0 1.353-0.232 1.829-0.695 0.475-0.475 0.713-1.061 0.713-1.755v-0.402l-2.505 0.421c-0.475 0.098-0.829 0.256-1.061 0.475-0.232 0.207-0.347 0.488-0.347 0.841z"></path>
</symbol>
<path fill="none" stroke="#518581" style="stroke: var(--color4, #518581)" stroke-linejoin="round" stroke-linecap="round" stroke-miterlimit="10" stroke-width="1.7143" d="M12.76 7.907l-8.093 8.093 8.093 8.093"></path>
<path fill="none" stroke="#518581" style="stroke: var(--color4, #518581)" stroke-linejoin="round" stroke-linecap="round" stroke-miterlimit="10" stroke-width="1.7143" d="M27.333 16h-22.44"></path>
</symbol>
</defs>
</svg>
